<mxfile host="Electron" modified="2024-11-21T16:35:19.095Z" agent="5.0 (Windows NT 10.0; Win64; x64) AppleWebKit/537.36 (KHTML, like Gecko) draw.io/20.8.16 Chrome/106.0.5249.199 Electron/21.4.0 Safari/537.36" etag="H10_cZ-cCLkjH25BTTqw" compressed="false" version="20.8.16" type="device">
  <diagram id="K6tpQGdSyWYsWiGt794e" name="v2">
    <mxGraphModel dx="312" dy="217" grid="1" gridSize="10" guides="1" tooltips="1" connect="1" arrows="1" fold="1" page="1" pageScale="1" pageWidth="827" pageHeight="1169" math="0" shadow="0">
      <root>
        <mxCell id="0" />
        <mxCell id="1" parent="0" />
        <object label="%id%&lt;br&gt;%blockId%" placeholders="1" type="section" blockId="B40" id="S140S">
          <mxCell style="endArrow=open;html=1;rounded=0;startArrow=oval;startFill=1;endFill=0;fontSize=8;fontColor=#4472C4;strokeColor=#4472C4;labelBackgroundColor=none;" parent="1" source="j140" target="j151" edge="1">
            <mxGeometry width="100" height="100" relative="1" as="geometry">
              <mxPoint x="910" y="230" as="sourcePoint" />
              <mxPoint x="1049.9999999999877" y="230" as="targetPoint" />
            </mxGeometry>
          </mxCell>
        </object>
        <object label="%id%&lt;br&gt;%blockId%" placeholders="1" type="section" blockId="B40" id="S140C">
          <mxCell style="endArrow=open;html=1;rounded=0;startArrow=oval;startFill=1;endFill=0;fontSize=8;fontColor=#4472C4;strokeColor=#4472C4;labelBackgroundColor=none;" parent="1" source="j140" target="C41" edge="1">
            <mxGeometry width="100" height="100" relative="1" as="geometry">
              <mxPoint x="1134.434356937824" y="218.9630618956012" as="sourcePoint" />
              <mxPoint x="1190" y="240" as="targetPoint" />
            </mxGeometry>
          </mxCell>
        </object>
        <object label="%id%&lt;br&gt;%blockId%" placeholders="1" type="section" blockId="B40" id="S40">
          <mxCell style="endArrow=open;html=1;rounded=0;startArrow=oval;startFill=1;endFill=0;fontSize=8;fontColor=#4472C4;strokeColor=#4472C4;labelBackgroundColor=none;" parent="1" source="C40" target="j140" edge="1">
            <mxGeometry width="100" height="100" relative="1" as="geometry">
              <mxPoint x="1020" y="170" as="sourcePoint" />
              <mxPoint x="1145.5278640449285" y="281.05572808985676" as="targetPoint" />
              <mxPoint as="offset" />
              <Array as="points">
                <mxPoint x="1100" y="200" />
              </Array>
            </mxGeometry>
          </mxCell>
        </object>
        <object label="%id%&lt;br&gt;%blockId%" placeholders="1" type="section" blockId="B30" id="S160C">
          <mxCell style="endArrow=open;html=1;rounded=0;startArrow=oval;startFill=1;endFill=0;fontSize=8;fontColor=#4472C4;strokeColor=#4472C4;labelBackgroundColor=none;" parent="1" source="j160" target="j130" edge="1">
            <mxGeometry width="100" height="100" relative="1" as="geometry">
              <mxPoint x="1094.4506740642357" y="218.95497070755857" as="sourcePoint" />
              <mxPoint x="1125.508762605811" y="281.0653043328363" as="targetPoint" />
            </mxGeometry>
          </mxCell>
        </object>
        <object label="%id%&lt;br&gt;%blockId%" placeholders="1" type="section" blockId="B30" id="S160S">
          <mxCell style="endArrow=open;html=1;rounded=0;startArrow=oval;startFill=1;endFill=0;fontSize=8;fontColor=#4472C4;strokeColor=#4472C4;labelBackgroundColor=none;" parent="1" source="j160" target="C51" edge="1">
            <mxGeometry width="100" height="100" relative="1" as="geometry">
              <mxPoint x="1124.4506740642357" y="228.95497070755857" as="sourcePoint" />
              <mxPoint x="1000" y="300" as="targetPoint" />
              <mxPoint as="offset" />
            </mxGeometry>
          </mxCell>
        </object>
        <object label="%id%&lt;br&gt;%blockId%" placeholders="1" type="section" blockId="B30" id="S30">
          <mxCell style="endArrow=open;html=1;rounded=0;startArrow=oval;startFill=1;endFill=0;fontSize=8;fontColor=#4472C4;strokeColor=#4472C4;labelBackgroundColor=none;" parent="1" source="C30" target="j130" edge="1">
            <mxGeometry width="100" height="100" relative="1" as="geometry">
              <mxPoint x="810" y="240" as="sourcePoint" />
              <mxPoint x="925.5278640450003" y="218.9442719099991" as="targetPoint" />
            </mxGeometry>
          </mxCell>
        </object>
        <object label="%id%&lt;br&gt;%blockId%" placeholders="1" type="section" blockId="B39" id="S169">
          <mxCell style="endArrow=open;html=1;rounded=0;startArrow=oval;startFill=1;endFill=0;fontSize=8;fontColor=#4472C4;strokeColor=#4472C4;labelBackgroundColor=none;" parent="1" source="j169" target="C50" edge="1">
            <mxGeometry width="100" height="100" relative="1" as="geometry">
              <mxPoint x="850" y="360" as="sourcePoint" />
              <mxPoint x="759.9999999999877" y="170" as="targetPoint" />
            </mxGeometry>
          </mxCell>
        </object>
        <object label="%id%&lt;br&gt;%blockId%" placeholders="1" type="section" blockId="B39" id="S139S">
          <mxCell style="endArrow=open;html=1;rounded=0;startArrow=oval;startFill=1;endFill=0;fontSize=8;fontColor=#4472C4;strokeColor=#4472C4;labelBackgroundColor=none;" parent="1" source="j139" target="j120" edge="1">
            <mxGeometry width="100" height="100" relative="1" as="geometry">
              <mxPoint x="610" y="180" as="sourcePoint" />
              <mxPoint x="810" y="440" as="targetPoint" />
              <mxPoint as="offset" />
            </mxGeometry>
          </mxCell>
        </object>
        <object label="%id%&lt;br&gt;%blockId%" placeholders="1" type="section" blockId="B39" id="S139C">
          <mxCell style="endArrow=open;html=1;rounded=0;startArrow=oval;startFill=1;endFill=0;fontSize=8;fontColor=#4472C4;strokeColor=#4472C4;labelBackgroundColor=none;" parent="1" source="j139" target="j169" edge="1">
            <mxGeometry width="100" height="100" relative="1" as="geometry">
              <mxPoint x="765.544684457064" y="441.04733763542083" as="sourcePoint" />
              <mxPoint x="734.4721359549997" y="378.9442719099992" as="targetPoint" />
            </mxGeometry>
          </mxCell>
        </object>
        <object label="%id%&lt;br&gt;%blockId%" placeholders="1" type="section" blockId="B39" id="S49">
          <mxCell style="endArrow=open;html=1;rounded=0;startArrow=oval;startFill=1;endFill=0;fontSize=8;fontColor=#4472C4;strokeColor=#4472C4;labelBackgroundColor=none;" parent="1" source="C49" target="j120" edge="1">
            <mxGeometry x="0.0014" width="100" height="100" relative="1" as="geometry">
              <mxPoint x="955.5278640450003" y="511.0557280900009" as="sourcePoint" />
              <mxPoint x="864.4721359549997" y="388.9442719099993" as="targetPoint" />
              <Array as="points">
                <mxPoint x="920" y="480" />
              </Array>
              <mxPoint as="offset" />
            </mxGeometry>
          </mxCell>
        </object>
        <object label="%id%&lt;br&gt;%blockId%" placeholders="1" type="section" blockId="B54" id="S54">
          <mxCell style="endArrow=open;html=1;rounded=0;startArrow=oval;startFill=1;endFill=0;fontSize=8;fontColor=#4472C4;strokeColor=#4472C4;labelBackgroundColor=none;" parent="1" source="C54" target="C55" edge="1">
            <mxGeometry width="100" height="100" relative="1" as="geometry">
              <mxPoint x="160" y="480" as="sourcePoint" />
              <mxPoint x="100" y="480" as="targetPoint" />
              <mxPoint as="offset" />
              <Array as="points">
                <mxPoint x="40" y="400" />
              </Array>
            </mxGeometry>
          </mxCell>
        </object>
        <object label="%id%&lt;br&gt;%blockId%" placeholders="1" type="section" blockId="B30" id="S130">
          <mxCell style="endArrow=open;html=1;rounded=0;startArrow=oval;startFill=1;endFill=0;fontSize=8;fontColor=#4472C4;strokeColor=#4472C4;labelBackgroundColor=none;" parent="1" source="j130" target="C40" edge="1">
            <mxGeometry width="100" height="100" relative="1" as="geometry">
              <mxPoint x="940" y="210" as="sourcePoint" />
              <mxPoint x="1120" y="210" as="targetPoint" />
              <Array as="points">
                <mxPoint x="920" y="200" />
              </Array>
            </mxGeometry>
          </mxCell>
        </object>
        <object label="%id%&lt;br&gt;%blockId%" placeholders="1" type="section" blockId="B40" id="S51">
          <mxCell style="endArrow=open;html=1;rounded=0;startArrow=oval;startFill=1;endFill=0;fontSize=8;fontColor=#4472C4;strokeColor=#4472C4;labelBackgroundColor=none;" parent="1" source="C51" target="j151" edge="1">
            <mxGeometry width="100" height="100" relative="1" as="geometry">
              <mxPoint x="899.863939238335" y="291.64398987305583" as="sourcePoint" />
              <mxPoint x="1010" y="310" as="targetPoint" />
              <mxPoint as="offset" />
            </mxGeometry>
          </mxCell>
        </object>
        <object label="%id%&lt;br&gt;%blockId%" placeholders="1" type="section" blockId="B40" id="S151">
          <mxCell style="endArrow=open;html=1;rounded=0;startArrow=oval;startFill=1;endFill=0;fontSize=8;fontColor=#4472C4;strokeColor=#4472C4;labelBackgroundColor=none;" parent="1" source="j151" target="C61" edge="1">
            <mxGeometry width="100" height="100" relative="1" as="geometry">
              <mxPoint x="1259.999999999982" y="210" as="sourcePoint" />
              <mxPoint x="1280.000000000018" y="210" as="targetPoint" />
              <mxPoint as="offset" />
            </mxGeometry>
          </mxCell>
        </object>
        <object label="%id%&lt;br&gt;%blockId%" placeholders="1" type="section" blockId="B61" id="S61">
          <mxCell style="endArrow=open;html=1;rounded=0;startArrow=oval;startFill=1;endFill=0;fontSize=8;fontColor=#4472C4;strokeColor=#4472C4;labelBackgroundColor=none;" parent="1" source="C61" target="C62" edge="1">
            <mxGeometry x="0.0069" width="100" height="100" relative="1" as="geometry">
              <mxPoint x="1220" y="290" as="sourcePoint" />
              <mxPoint x="1370" y="280" as="targetPoint" />
              <mxPoint as="offset" />
            </mxGeometry>
          </mxCell>
        </object>
        <object label="%id%&lt;br&gt;%blockId%" placeholders="1" type="section" blockId="B65" id="S65">
          <mxCell style="endArrow=open;html=1;rounded=0;startArrow=oval;startFill=1;endFill=0;fontSize=8;fontColor=#4472C4;strokeColor=#4472C4;labelBackgroundColor=none;" parent="1" source="C65" target="C66" edge="1">
            <mxGeometry x="0.0069" width="100" height="100" relative="1" as="geometry">
              <mxPoint x="1920" y="330" as="sourcePoint" />
              <mxPoint x="1810" y="370" as="targetPoint" />
              <mxPoint as="offset" />
              <Array as="points" />
            </mxGeometry>
          </mxCell>
        </object>
        <object label="%id%&lt;br&gt;%blockId%" placeholders="1" type="section" blockId="B48" id="S68">
          <mxCell style="endArrow=open;html=1;rounded=0;startArrow=oval;startFill=1;endFill=0;fontSize=8;fontColor=#4472C4;strokeColor=#4472C4;labelBackgroundColor=none;" parent="1" source="C68" target="j168" edge="1">
            <mxGeometry x="0.0069" width="100" height="100" relative="1" as="geometry">
              <mxPoint x="1310.033303959425" y="350.81545694877434" as="sourcePoint" />
              <mxPoint x="1170" y="360" as="targetPoint" />
              <mxPoint as="offset" />
            </mxGeometry>
          </mxCell>
        </object>
        <object label="%id%&lt;br&gt;%blockId%" placeholders="1" type="section" blockId="B44" id="S44">
          <mxCell style="endArrow=open;html=1;rounded=0;startArrow=oval;startFill=1;endFill=0;fontSize=8;fontColor=#4472C4;strokeColor=#4472C4;labelBackgroundColor=none;" parent="1" source="C44" target="C45" edge="1">
            <mxGeometry width="100" height="100" relative="1" as="geometry">
              <mxPoint x="1994.7814411152372" y="238.5303366385553" as="sourcePoint" />
              <mxPoint x="1974" y="240" as="targetPoint" />
              <Array as="points">
                <mxPoint x="1920" y="240" />
              </Array>
            </mxGeometry>
          </mxCell>
        </object>
        <object label="%id%&lt;br&gt;%blockId%" placeholders="1" type="section" blockId="B45" id="S45">
          <mxCell style="endArrow=open;html=1;rounded=0;startArrow=oval;startFill=1;endFill=0;fontSize=8;fontColor=#4472C4;strokeColor=#4472C4;labelBackgroundColor=none;" parent="1" source="C45" target="C46" edge="1">
            <mxGeometry width="100" height="100" relative="1" as="geometry">
              <mxPoint x="1930" y="260" as="sourcePoint" />
              <mxPoint x="1890" y="520" as="targetPoint" />
              <Array as="points">
                <mxPoint x="1920" y="400" />
              </Array>
            </mxGeometry>
          </mxCell>
        </object>
        <object label="%id%&lt;br&gt;%blockId%" placeholders="1" type="section" blockId="B48" id="S168S">
          <mxCell style="endArrow=open;html=1;rounded=0;startArrow=oval;startFill=1;endFill=0;fontSize=8;fontColor=#4472C4;strokeColor=#4472C4;labelBackgroundColor=none;" parent="1" source="j168" target="C69" edge="1">
            <mxGeometry width="100" height="100" relative="1" as="geometry">
              <mxPoint x="1150" y="360" as="sourcePoint" />
              <mxPoint x="860" y="370" as="targetPoint" />
            </mxGeometry>
          </mxCell>
        </object>
        <object label="%id%&lt;br&gt;%blockId%" placeholders="1" type="section" blockId="B24" id="S24">
          <mxCell style="endArrow=open;html=1;rounded=0;startArrow=oval;startFill=1;endFill=0;fontSize=8;fontColor=#4472C4;strokeColor=#4472C4;labelBackgroundColor=none;" parent="1" source="C24" target="C25" edge="1">
            <mxGeometry width="100" height="100" relative="1" as="geometry">
              <mxPoint x="360" y="409.9999999999999" as="sourcePoint" />
              <mxPoint x="260" y="409.9999999999999" as="targetPoint" />
              <Array as="points">
                <mxPoint x="80" y="360" />
              </Array>
            </mxGeometry>
          </mxCell>
        </object>
        <object label="%id%&lt;br&gt;%blockId%" placeholders="1" type="section" blockId="B25" id="S25">
          <mxCell style="endArrow=open;html=1;rounded=0;startArrow=oval;startFill=1;endFill=0;fontSize=8;fontColor=#4472C4;strokeColor=#4472C4;labelBackgroundColor=none;" parent="1" source="C25" target="C26" edge="1">
            <mxGeometry width="100" height="100" relative="1" as="geometry">
              <mxPoint x="239.99999999999181" y="370" as="sourcePoint" />
              <mxPoint x="180" y="370" as="targetPoint" />
              <Array as="points">
                <mxPoint x="80" y="280" />
              </Array>
            </mxGeometry>
          </mxCell>
        </object>
        <object label="%id%&lt;br&gt;%blockId%" placeholders="1" type="section" blockId="B26" id="S26">
          <mxCell style="endArrow=open;html=1;rounded=0;startArrow=oval;startFill=1;endFill=0;fontSize=8;fontColor=#4472C4;strokeColor=#4472C4;labelBackgroundColor=none;" parent="1" source="C26" target="C27" edge="1">
            <mxGeometry width="100" height="100" relative="1" as="geometry">
              <mxPoint x="570" y="360" as="sourcePoint" />
              <mxPoint x="280" y="280" as="targetPoint" />
              <mxPoint as="offset" />
            </mxGeometry>
          </mxCell>
        </object>
        <object label="%id%&lt;br&gt;%blockId%" placeholders="1" type="section" blockId="B55" id="S55">
          <mxCell style="endArrow=open;html=1;rounded=0;startArrow=oval;startFill=1;endFill=0;fontSize=8;fontColor=#4472C4;strokeColor=#4472C4;labelBackgroundColor=none;" parent="1" source="C55" target="C56" edge="1">
            <mxGeometry width="100" height="100" relative="1" as="geometry">
              <mxPoint x="360.0000000000002" y="450" as="sourcePoint" />
              <mxPoint x="110" y="200" as="targetPoint" />
              <mxPoint as="offset" />
              <Array as="points">
                <mxPoint x="40" y="240" />
              </Array>
            </mxGeometry>
          </mxCell>
        </object>
        <object label="%id%&lt;br&gt;%blockId%" placeholders="1" type="section" blockId="B26" id="_S26">
          <mxCell style="endArrow=open;html=1;rounded=0;startArrow=oval;startFill=1;endFill=0;fontSize=8;fontColor=#4472C4;strokeColor=#4472C4;labelBackgroundColor=none;" parent="1" source="C20" target="C21" edge="1">
            <mxGeometry width="100" height="100" relative="1" as="geometry">
              <mxPoint x="790" y="440" as="sourcePoint" />
              <mxPoint x="700" y="440" as="targetPoint" />
            </mxGeometry>
          </mxCell>
        </object>
        <object label="%id%&lt;br&gt;%blockId%" placeholders="1" type="section" blockId="B48" id="S148C">
          <mxCell style="endArrow=open;html=1;rounded=0;startArrow=oval;startFill=1;endFill=0;fontSize=8;fontColor=#4472C4;strokeColor=#4472C4;labelBackgroundColor=none;" parent="1" source="j148" target="C49" edge="1">
            <mxGeometry width="100" height="100" relative="1" as="geometry">
              <mxPoint x="1220" y="470" as="sourcePoint" />
              <mxPoint x="899.8220605963297" y="451.87806433380376" as="targetPoint" />
              <Array as="points">
                <mxPoint x="1120" y="480" />
              </Array>
            </mxGeometry>
          </mxCell>
        </object>
        <object label="%id%&lt;br&gt;%blockId%" placeholders="1" type="section" blockId="B39" id="S69">
          <mxCell style="endArrow=open;html=1;rounded=0;startArrow=oval;startFill=1;endFill=0;fontSize=8;fontColor=#4472C4;strokeColor=#4472C4;labelBackgroundColor=none;" parent="1" source="C69" target="j169" edge="1">
            <mxGeometry width="100" height="100" relative="1" as="geometry">
              <mxPoint x="925.5519238581733" y="521.0437385792944" as="sourcePoint" />
              <mxPoint x="950" y="390" as="targetPoint" />
            </mxGeometry>
          </mxCell>
        </object>
        <object label="%id%&lt;br&gt;%blockId%" placeholders="1" type="section" blockId="B29" id="S29">
          <mxCell style="endArrow=open;html=1;rounded=0;startArrow=oval;startFill=1;endFill=0;fontSize=8;fontColor=#4472C4;strokeColor=#4472C4;labelBackgroundColor=none;" parent="1" source="C29" target="C30" edge="1">
            <mxGeometry width="100" height="100" relative="1" as="geometry">
              <mxPoint x="820" y="210" as="sourcePoint" />
              <mxPoint x="790" y="240" as="targetPoint" />
            </mxGeometry>
          </mxCell>
        </object>
        <object label="%id%&lt;br&gt;%blockId%" placeholders="1" type="section" blockId="B58" id="S58">
          <mxCell style="endArrow=open;html=1;rounded=0;startArrow=oval;startFill=1;endFill=0;fontSize=8;fontColor=#4472C4;strokeColor=#4472C4;labelBackgroundColor=none;" parent="1" source="C58" target="C59" edge="1">
            <mxGeometry width="100" height="100" relative="1" as="geometry">
              <mxPoint x="690" y="170" as="sourcePoint" />
              <mxPoint x="660" y="160" as="targetPoint" />
              <Array as="points">
                <mxPoint x="580" y="440" />
                <mxPoint x="660" y="280" />
              </Array>
            </mxGeometry>
          </mxCell>
        </object>
        <object label="%id%&lt;br&gt;%blockId%" placeholders="1" type="section" blockId="B56" id="S56">
          <mxCell style="endArrow=open;html=1;rounded=0;startArrow=oval;startFill=1;endFill=0;fontSize=8;fontColor=#4472C4;strokeColor=#4472C4;labelBackgroundColor=none;" parent="1" source="C56" target="C58" edge="1">
            <mxGeometry width="100" height="100" relative="1" as="geometry">
              <mxPoint x="364.47213595496873" y="368.94427190993724" as="sourcePoint" />
              <mxPoint x="560" y="600" as="targetPoint" />
              <Array as="points">
                <mxPoint x="320" y="240" />
                <mxPoint x="420" y="440" />
              </Array>
            </mxGeometry>
          </mxCell>
        </object>
        <object label="%id%&lt;br&gt;%blockId%" placeholders="1" type="section" blockId="B28" id="S28">
          <mxCell style="endArrow=open;html=1;rounded=0;startArrow=oval;startFill=1;endFill=0;fontSize=8;fontColor=#4472C4;strokeColor=#4472C4;labelBackgroundColor=none;" parent="1" source="C28" target="C29" edge="1">
            <mxGeometry width="100" height="100" relative="1" as="geometry">
              <mxPoint x="610" y="290" as="sourcePoint" />
              <mxPoint x="630" y="150" as="targetPoint" />
              <Array as="points">
                <mxPoint x="620" y="280" />
                <mxPoint x="640" y="240" />
              </Array>
            </mxGeometry>
          </mxCell>
        </object>
        <object label="%id%&lt;br&gt;%blockId%" placeholders="1" type="section" blockId="B59" id="S59">
          <mxCell style="endArrow=open;html=1;rounded=0;startArrow=oval;startFill=1;endFill=0;fontSize=8;fontColor=#4472C4;strokeColor=#4472C4;labelBackgroundColor=none;" parent="1" source="C59" target="C60" edge="1">
            <mxGeometry x="0.0057" width="100" height="100" relative="1" as="geometry">
              <mxPoint x="680" y="310" as="sourcePoint" />
              <mxPoint x="780" y="370" as="targetPoint" />
              <mxPoint as="offset" />
            </mxGeometry>
          </mxCell>
        </object>
        <object label="%id%&lt;br&gt;%blockId%" placeholders="1" type="section" blockId="B30" id="S60">
          <mxCell style="endArrow=open;html=1;rounded=0;startArrow=oval;startFill=1;endFill=0;fontSize=8;fontColor=#4472C4;strokeColor=#4472C4;labelBackgroundColor=none;" parent="1" source="C60" target="j160" edge="1">
            <mxGeometry x="0.0057" width="100" height="100" relative="1" as="geometry">
              <mxPoint x="820" y="310" as="sourcePoint" />
              <mxPoint x="800" y="290" as="targetPoint" />
              <mxPoint as="offset" />
            </mxGeometry>
          </mxCell>
        </object>
        <object label="%id%&lt;br&gt;%blockId%" placeholders="1" type="section" blockId="B23" id="S23">
          <mxCell style="endArrow=open;html=1;rounded=0;startArrow=oval;startFill=1;endFill=0;fontSize=8;fontColor=#4472C4;strokeColor=#4472C4;labelBackgroundColor=none;" parent="1" source="C23" target="C24" edge="1">
            <mxGeometry width="100" height="100" relative="1" as="geometry">
              <mxPoint x="129.9999999999999" y="439.9999999999999" as="sourcePoint" />
              <mxPoint x="180" y="430" as="targetPoint" />
            </mxGeometry>
          </mxCell>
        </object>
        <object label="%id%&lt;br&gt;%blockId%" placeholders="1" type="section" blockId="B22" id="S22">
          <mxCell style="endArrow=open;html=1;rounded=0;startArrow=oval;startFill=1;endFill=0;fontSize=8;fontColor=#4472C4;strokeColor=#4472C4;labelBackgroundColor=none;" parent="1" source="C22" target="C23" edge="1">
            <mxGeometry width="100" height="100" relative="1" as="geometry">
              <mxPoint x="169.9999999999999" y="439.9999999999999" as="sourcePoint" />
              <mxPoint x="409.99999999998363" y="360" as="targetPoint" />
              <mxPoint as="offset" />
            </mxGeometry>
          </mxCell>
        </object>
        <object label="%id%&lt;br&gt;%blockId%" placeholders="1" type="section" blockId="B21" id="S21">
          <mxCell style="endArrow=open;html=1;rounded=0;startArrow=oval;startFill=1;endFill=0;fontSize=8;fontColor=#4472C4;strokeColor=#4472C4;labelBackgroundColor=none;" parent="1" source="C21" target="C22" edge="1">
            <mxGeometry width="100" height="100" relative="1" as="geometry">
              <mxPoint x="660" y="400" as="sourcePoint" />
              <mxPoint x="700" y="370.0000000000001" as="targetPoint" />
              <Array as="points">
                <mxPoint x="640" y="400" />
                <mxPoint x="620" y="360" />
              </Array>
            </mxGeometry>
          </mxCell>
        </object>
        <object label="%id%&lt;br&gt;%blockId%" placeholders="1" type="section" blockId="B50" id="S50">
          <mxCell style="endArrow=open;html=1;rounded=0;startArrow=oval;startFill=1;endFill=0;fontSize=8;fontColor=#4472C4;strokeColor=#4472C4;labelBackgroundColor=none;" parent="1" source="C50" target="C52" edge="1">
            <mxGeometry width="100" height="100" relative="1" as="geometry">
              <mxPoint x="670" y="360" as="sourcePoint" />
              <mxPoint x="700" y="449.9999999999999" as="targetPoint" />
              <Array as="points">
                <mxPoint x="660" y="360" />
                <mxPoint x="600" y="480" />
              </Array>
            </mxGeometry>
          </mxCell>
        </object>
        <object label="%id%&lt;br&gt;%blockId%" placeholders="1" type="section" blockId="B52" id="S52">
          <mxCell style="endArrow=open;html=1;rounded=0;startArrow=oval;startFill=1;endFill=0;fontSize=8;fontColor=#4472C4;strokeColor=#4472C4;labelBackgroundColor=none;" parent="1" source="C52" target="C53" edge="1">
            <mxGeometry width="100" height="100" relative="1" as="geometry">
              <mxPoint x="560" y="369.9999999999999" as="sourcePoint" />
              <mxPoint x="410" y="550" as="targetPoint" />
              <Array as="points">
                <mxPoint x="400" y="480" />
              </Array>
            </mxGeometry>
          </mxCell>
        </object>
        <object label="%id%&lt;br&gt;%blockId%" placeholders="1" type="section" blockId="B53" id="S53">
          <mxCell style="endArrow=open;html=1;rounded=0;startArrow=oval;startFill=1;endFill=0;fontSize=8;fontColor=#4472C4;strokeColor=#4472C4;labelBackgroundColor=none;" parent="1" source="C53" target="C54" edge="1">
            <mxGeometry width="100" height="100" relative="1" as="geometry">
              <mxPoint x="470" y="490" as="sourcePoint" />
              <mxPoint x="440" y="389.9999999999999" as="targetPoint" />
            </mxGeometry>
          </mxCell>
        </object>
        <object label="%id%&lt;br&gt;%blockId%" placeholders="1" type="section" blockId="B27" id="S27">
          <mxCell style="endArrow=open;html=1;rounded=0;startArrow=oval;startFill=1;endFill=0;fontSize=8;fontColor=#4472C4;strokeColor=#4472C4;labelBackgroundColor=none;" parent="1" source="C27" target="C28" edge="1">
            <mxGeometry width="100" height="100" relative="1" as="geometry">
              <mxPoint x="409.9999999999918" y="280" as="sourcePoint" />
              <mxPoint x="574.631245078067" y="148.4366148773235" as="targetPoint" />
            </mxGeometry>
          </mxCell>
        </object>
        <object label="%id%&lt;br&gt;%blockId%" placeholders="1" type="section" blockId="B41" id="S41">
          <mxCell style="endArrow=open;html=1;rounded=0;startArrow=oval;startFill=1;endFill=0;fontSize=8;fontColor=#4472C4;strokeColor=#4472C4;labelBackgroundColor=none;" parent="1" source="C41" target="C42" edge="1">
            <mxGeometry width="100" height="100" relative="1" as="geometry">
              <mxPoint x="1330" y="200" as="sourcePoint" />
              <mxPoint x="1450" y="240" as="targetPoint" />
              <Array as="points">
                <mxPoint x="1380" y="240" />
                <mxPoint x="1400" y="200" />
              </Array>
            </mxGeometry>
          </mxCell>
        </object>
        <object label="%id%&lt;br&gt;%blockId%" placeholders="1" type="section" blockId="B62" id="S62">
          <mxCell style="endArrow=open;html=1;rounded=0;startArrow=oval;startFill=1;endFill=0;fontSize=8;fontColor=#4472C4;strokeColor=#4472C4;labelBackgroundColor=none;" parent="1" source="C62" target="C63" edge="1">
            <mxGeometry width="100" height="100" relative="1" as="geometry">
              <mxPoint x="1400" y="230" as="sourcePoint" />
              <mxPoint x="1460" y="260" as="targetPoint" />
            </mxGeometry>
          </mxCell>
        </object>
        <object label="%id%&lt;br&gt;%blockId%" placeholders="1" type="section" blockId="B42" id="S142C">
          <mxCell style="endArrow=open;html=1;rounded=0;startArrow=oval;startFill=1;endFill=0;fontSize=8;fontColor=#4472C4;strokeColor=#4472C4;labelBackgroundColor=none;" parent="1" source="j142" target="C43" edge="1">
            <mxGeometry width="100" height="100" relative="1" as="geometry">
              <mxPoint x="1570" y="200" as="sourcePoint" />
              <mxPoint x="1520" y="210" as="targetPoint" />
              <Array as="points">
                <mxPoint x="1580" y="240" />
              </Array>
            </mxGeometry>
          </mxCell>
        </object>
        <object label="%id%&lt;br&gt;%blockId%" placeholders="1" type="section" blockId="B43" id="S43">
          <mxCell style="endArrow=open;html=1;rounded=0;startArrow=oval;startFill=1;endFill=0;fontSize=8;fontColor=#4472C4;strokeColor=#4472C4;labelBackgroundColor=none;" parent="1" source="C43" target="C44" edge="1">
            <mxGeometry width="100" height="100" relative="1" as="geometry">
              <mxPoint x="1429.9999999999486" y="220" as="sourcePoint" />
              <mxPoint x="1530" y="220" as="targetPoint" />
            </mxGeometry>
          </mxCell>
        </object>
        <object label="%id%&lt;br&gt;%blockId%" placeholders="1" type="section" blockId="B42" id="S42">
          <mxCell style="endArrow=open;html=1;rounded=0;startArrow=oval;startFill=1;endFill=0;fontSize=8;fontColor=#4472C4;strokeColor=#4472C4;labelBackgroundColor=none;" parent="1" source="C42" target="j142" edge="1">
            <mxGeometry width="100" height="100" relative="1" as="geometry">
              <mxPoint x="1417.0710678119121" y="217.07106781191214" as="sourcePoint" />
              <mxPoint x="1550" y="200" as="targetPoint" />
            </mxGeometry>
          </mxCell>
        </object>
        <object label="%id%&lt;br&gt;%blockId%" placeholders="1" type="section" blockId="B63" id="S63">
          <mxCell style="endArrow=open;html=1;rounded=0;startArrow=oval;startFill=1;endFill=0;fontSize=8;fontColor=#4472C4;strokeColor=#4472C4;labelBackgroundColor=none;" parent="1" source="C63" target="C64" edge="1">
            <mxGeometry width="100" height="100" relative="1" as="geometry">
              <mxPoint x="1540" y="210" as="sourcePoint" />
              <mxPoint x="1640" y="210" as="targetPoint" />
            </mxGeometry>
          </mxCell>
        </object>
        <object label="%id%&lt;br&gt;%blockId%" placeholders="1" type="section" blockId="B64" id="S64">
          <mxCell style="endArrow=open;html=1;rounded=0;startArrow=oval;startFill=1;endFill=0;fontSize=8;fontColor=#4472C4;strokeColor=#4472C4;labelBackgroundColor=none;" parent="1" source="C64" target="C65" edge="1">
            <mxGeometry x="0.0069" width="100" height="100" relative="1" as="geometry">
              <mxPoint x="1810" y="280" as="sourcePoint" />
              <mxPoint x="1890" y="400" as="targetPoint" />
              <mxPoint as="offset" />
              <Array as="points">
                <mxPoint x="1880" y="280" />
              </Array>
            </mxGeometry>
          </mxCell>
        </object>
        <object label="%id%&lt;br&gt;%blockId%" placeholders="1" type="section" blockId="B46" id="S46">
          <mxCell style="endArrow=open;html=1;rounded=0;startArrow=oval;startFill=1;endFill=0;fontSize=8;fontColor=#4472C4;strokeColor=#4472C4;labelBackgroundColor=none;" parent="1" source="C46" target="j146" edge="1">
            <mxGeometry width="100" height="100" relative="1" as="geometry">
              <mxPoint x="1360" y="410" as="sourcePoint" />
              <mxPoint x="1610" y="400" as="targetPoint" />
              <Array as="points" />
              <mxPoint as="offset" />
            </mxGeometry>
          </mxCell>
        </object>
        <object label="%id%&lt;br&gt;%blockId%" placeholders="1" type="section" blockId="B67" id="S67">
          <mxCell style="endArrow=open;html=1;rounded=0;startArrow=oval;startFill=1;endFill=0;fontSize=8;fontColor=#4472C4;strokeColor=#4472C4;labelBackgroundColor=none;" parent="1" source="C67" target="C68" edge="1">
            <mxGeometry x="0.0069" width="100" height="100" relative="1" as="geometry">
              <mxPoint x="1370" y="420" as="sourcePoint" />
              <mxPoint x="1230" y="420" as="targetPoint" />
              <mxPoint as="offset" />
            </mxGeometry>
          </mxCell>
        </object>
        <object label="%id%&lt;br&gt;%blockId%" placeholders="1" type="section" blockId="B47" id="S47">
          <mxCell style="endArrow=open;html=1;rounded=0;startArrow=oval;startFill=1;endFill=0;fontSize=8;fontColor=#4472C4;strokeColor=#4472C4;labelBackgroundColor=none;" parent="1" source="C47" target="C48" edge="1">
            <mxGeometry x="0.0069" width="100" height="100" relative="1" as="geometry">
              <mxPoint x="1380" y="430" as="sourcePoint" />
              <mxPoint x="1320" y="410" as="targetPoint" />
              <mxPoint as="offset" />
              <Array as="points">
                <mxPoint x="1400" y="440" />
                <mxPoint x="1380" y="400" />
              </Array>
            </mxGeometry>
          </mxCell>
        </object>
        <object label="%id%&lt;br&gt;%blockId%" placeholders="1" type="section" blockId="B66" id="S66">
          <mxCell style="endArrow=open;html=1;rounded=0;startArrow=oval;startFill=1;endFill=0;fontSize=8;fontColor=#4472C4;strokeColor=#4472C4;labelBackgroundColor=none;" parent="1" source="C66" target="j166" edge="1">
            <mxGeometry width="100" height="100" relative="1" as="geometry">
              <mxPoint x="1400" y="450" as="sourcePoint" />
              <mxPoint x="1600" y="340" as="targetPoint" />
            </mxGeometry>
          </mxCell>
        </object>
        <object label="%id%&lt;br&gt;%blockId%" placeholders="1" type="section" blockId="B39" id="S120">
          <mxCell style="endArrow=open;html=1;rounded=0;startArrow=oval;startFill=1;endFill=0;fontSize=8;fontColor=#4472C4;strokeColor=#4472C4;labelBackgroundColor=none;" parent="1" source="j120" target="C20" edge="1">
            <mxGeometry width="100" height="100" relative="1" as="geometry">
              <mxPoint x="900" y="370" as="sourcePoint" />
              <mxPoint x="821" y="370" as="targetPoint" />
            </mxGeometry>
          </mxCell>
        </object>
        <object label="%id%&lt;br&gt;%blockId%" placeholders="1" type="section" blockId="B48" id="S149">
          <mxCell style="endArrow=open;html=1;rounded=0;startArrow=oval;startFill=1;endFill=0;fontSize=8;fontColor=#4472C4;strokeColor=#4472C4;labelBackgroundColor=none;" parent="1" source="j149" target="C39" edge="1">
            <mxGeometry width="100" height="100" relative="1" as="geometry">
              <mxPoint x="1130" y="400" as="sourcePoint" />
              <mxPoint x="1030" y="410" as="targetPoint" />
            </mxGeometry>
          </mxCell>
        </object>
        <object label="%id%&lt;br&gt;%blockId%" placeholders="1" type="section" blockId="B48" id="S148S">
          <mxCell style="endArrow=open;html=1;rounded=0;startArrow=oval;startFill=1;endFill=0;fontSize=8;fontColor=#4472C4;strokeColor=#4472C4;labelBackgroundColor=none;" parent="1" source="j148" target="j149" edge="1">
            <mxGeometry width="100" height="100" relative="1" as="geometry">
              <mxPoint x="1120" y="410" as="sourcePoint" />
              <mxPoint x="940" y="410" as="targetPoint" />
            </mxGeometry>
          </mxCell>
        </object>
        <object label="%id%&lt;br&gt;%blockId%" placeholders="1" type="section" blockId="B48" id="S168C">
          <mxCell style="endArrow=open;html=1;rounded=0;startArrow=oval;startFill=1;endFill=0;fontSize=8;fontColor=#4472C4;strokeColor=#4472C4;labelBackgroundColor=none;" parent="1" source="j168" target="j149" edge="1">
            <mxGeometry width="100" height="100" relative="1" as="geometry">
              <mxPoint x="1180" y="410" as="sourcePoint" />
              <mxPoint x="1139.999999999982" y="410" as="targetPoint" />
            </mxGeometry>
          </mxCell>
        </object>
        <object label="%id%&lt;br&gt;%blockId%" placeholders="1" type="section" blockId="B39" id="S39">
          <mxCell style="endArrow=open;html=1;rounded=0;startArrow=oval;startFill=1;endFill=0;fontSize=8;fontColor=#4472C4;strokeColor=#4472C4;labelBackgroundColor=none;" parent="1" source="C39" target="j139" edge="1">
            <mxGeometry width="100" height="100" relative="1" as="geometry">
              <mxPoint x="1120" y="410" as="sourcePoint" />
              <mxPoint x="940" y="430" as="targetPoint" />
            </mxGeometry>
          </mxCell>
        </object>
        <object label="%id%&lt;br&gt;%blockId%" placeholders="1" type="section" blockId="B48" id="S48">
          <mxCell style="endArrow=open;html=1;rounded=0;startArrow=oval;startFill=1;endFill=0;fontSize=8;fontColor=#4472C4;strokeColor=#4472C4;labelBackgroundColor=none;" parent="1" source="C48" target="j148" edge="1">
            <mxGeometry x="0.0069" width="100" height="100" relative="1" as="geometry">
              <mxPoint x="1280" y="370" as="sourcePoint" />
              <mxPoint x="1160" y="370" as="targetPoint" />
              <mxPoint as="offset" />
            </mxGeometry>
          </mxCell>
        </object>
        <object label="%id%&lt;br&gt;%blockId%" placeholders="1" type="section" blockId="B100" id="S142S">
          <mxCell style="endArrow=open;html=1;rounded=0;startArrow=oval;startFill=1;endFill=0;fontSize=8;fontColor=#4472C4;strokeColor=#4472C4;labelBackgroundColor=none;" parent="1" source="j142" target="C57" edge="1">
            <mxGeometry x="0.0068" width="100" height="100" relative="1" as="geometry">
              <mxPoint x="1578.9526623644765" y="214.4553155428851" as="sourcePoint" />
              <mxPoint x="1660" y="480" as="targetPoint" />
              <Array as="points">
                <mxPoint x="1680" y="200" />
                <mxPoint x="1740" y="320" />
              </Array>
              <mxPoint as="offset" />
            </mxGeometry>
          </mxCell>
        </object>
        <object label="%id%&lt;br&gt;%blockId%" placeholders="1" type="section" blockId="B46" id="S146">
          <mxCell style="endArrow=open;html=1;rounded=0;startArrow=oval;startFill=1;endFill=0;fontSize=8;fontColor=#4472C4;strokeColor=#4472C4;labelBackgroundColor=none;" parent="1" source="j147" target="C47" edge="1">
            <mxGeometry width="100" height="100" relative="1" as="geometry">
              <mxPoint x="1681.799662761346" y="415.72315203114374" as="sourcePoint" />
              <mxPoint x="1598.1923192050976" y="474.2653765564319" as="targetPoint" />
            </mxGeometry>
          </mxCell>
        </object>
        <object label="%id%&lt;br&gt;%blockId%" placeholders="1" type="section" blockId="B46" id="S38">
          <mxCell style="endArrow=open;html=1;rounded=0;startArrow=oval;startFill=1;endFill=0;fontSize=8;fontColor=#4472C4;strokeColor=#4472C4;labelBackgroundColor=none;" parent="1" source="C38" target="j147" edge="1">
            <mxGeometry width="100" height="100" relative="1" as="geometry">
              <mxPoint x="1620" y="480" as="sourcePoint" />
              <mxPoint x="1608.1923192050976" y="484.2653765564319" as="targetPoint" />
              <Array as="points">
                <mxPoint x="1600" y="440" />
              </Array>
            </mxGeometry>
          </mxCell>
        </object>
        <object label="%id%" placeholders="1" type="junction" id="j140">
          <mxCell style="ellipse;whiteSpace=wrap;html=1;aspect=fixed;fontSize=8;fontColor=#BF9000;strokeColor=#BF9000;labelBackgroundColor=none;" parent="1" vertex="1">
            <mxGeometry x="1110" y="230" width="20" height="20" as="geometry" />
          </mxCell>
        </object>
        <object label="%id%" placeholders="1" type="junction" id="j130">
          <mxCell style="ellipse;whiteSpace=wrap;html=1;aspect=fixed;fontSize=8;fontColor=#BF9000;strokeColor=#BF9000;labelBackgroundColor=none;" parent="1" vertex="1">
            <mxGeometry x="890" y="230" width="20" height="20" as="geometry" />
          </mxCell>
        </object>
        <object label="%id%" placeholders="1" type="junction" id="j160">
          <mxCell style="ellipse;whiteSpace=wrap;html=1;aspect=fixed;fontSize=8;fontColor=#BF9000;strokeColor=#BF9000;labelBackgroundColor=none;" parent="1" vertex="1">
            <mxGeometry x="870" y="270" width="20" height="20" as="geometry" />
          </mxCell>
        </object>
        <object label="%id%" placeholders="1" type="junction" id="j169">
          <mxCell style="ellipse;whiteSpace=wrap;html=1;aspect=fixed;fontSize=8;fontColor=#BF9000;strokeColor=#BF9000;labelBackgroundColor=none;" parent="1" vertex="1">
            <mxGeometry x="890" y="350" width="20" height="20" as="geometry" />
          </mxCell>
        </object>
        <object label="%id%" placeholders="1" type="junction" id="j139">
          <mxCell style="ellipse;whiteSpace=wrap;html=1;aspect=fixed;fontSize=8;fontColor=#BF9000;strokeColor=#BF9000;labelBackgroundColor=none;" parent="1" vertex="1">
            <mxGeometry x="910" y="390" width="20" height="20" as="geometry" />
          </mxCell>
        </object>
        <object label="%id%" placeholders="1" type="junction" id="C40">
          <mxCell style="ellipse;whiteSpace=wrap;html=1;aspect=fixed;fontSize=8;fontColor=#A5A5A5;strokeColor=#A5A5A5;labelBackgroundColor=none;" parent="1" vertex="1">
            <mxGeometry x="990" y="190" width="20" height="20" as="geometry" />
          </mxCell>
        </object>
        <object label="%id%" placeholders="1" type="junction" id="C51">
          <mxCell style="ellipse;whiteSpace=wrap;html=1;aspect=fixed;fontSize=8;fontColor=#A5A5A5;strokeColor=#A5A5A5;labelBackgroundColor=none;" parent="1" vertex="1">
            <mxGeometry x="990" y="270" width="20" height="20" as="geometry" />
          </mxCell>
        </object>
        <object label="%id%" placeholders="1" type="junction" id="j151">
          <mxCell style="ellipse;whiteSpace=wrap;html=1;aspect=fixed;fontSize=8;fontColor=#BF9000;strokeColor=#BF9000;labelBackgroundColor=none;" parent="1" vertex="1">
            <mxGeometry x="1130" y="270" width="20" height="20" as="geometry" />
          </mxCell>
        </object>
        <object label="%id%" placeholders="1" type="junction" id="C61">
          <mxCell style="ellipse;whiteSpace=wrap;html=1;aspect=fixed;fontSize=8;fontColor=#A5A5A5;strokeColor=#A5A5A5;labelBackgroundColor=none;" parent="1" vertex="1">
            <mxGeometry x="1270" y="270" width="20" height="20" as="geometry" />
          </mxCell>
        </object>
        <object label="%id%" placeholders="1" type="junction" id="C41">
          <mxCell style="ellipse;whiteSpace=wrap;html=1;aspect=fixed;fontSize=8;fontColor=#A5A5A5;strokeColor=#A5A5A5;labelBackgroundColor=none;" parent="1" vertex="1">
            <mxGeometry x="1270" y="230" width="20" height="20" as="geometry" />
          </mxCell>
        </object>
        <object label="%id%" placeholders="1" type="junction" id="C65">
          <mxCell style="ellipse;whiteSpace=wrap;html=1;aspect=fixed;fontSize=8;fontColor=#A5A5A5;strokeColor=#A5A5A5;labelBackgroundColor=none;" parent="1" vertex="1">
            <mxGeometry x="1870" y="350" width="20" height="20" as="geometry" />
          </mxCell>
        </object>
        <object label="%id%" placeholders="1" type="junction" id="C68">
          <mxCell style="ellipse;whiteSpace=wrap;html=1;aspect=fixed;fontSize=8;fontColor=#A5A5A5;strokeColor=#A5A5A5;labelBackgroundColor=none;" parent="1" vertex="1">
            <mxGeometry x="1270" y="350" width="20" height="20" as="geometry" />
          </mxCell>
        </object>
        <object label="%id%" placeholders="1" type="junction" id="C45">
          <mxCell style="ellipse;whiteSpace=wrap;html=1;aspect=fixed;fontSize=8;fontColor=#A5A5A5;strokeColor=#A5A5A5;labelBackgroundColor=none;" parent="1" vertex="1">
            <mxGeometry x="1910" y="350" width="20" height="20" as="geometry" />
          </mxCell>
        </object>
        <object label="%id%" placeholders="1" type="junction" id="C48">
          <mxCell style="ellipse;whiteSpace=wrap;html=1;aspect=fixed;fontSize=8;fontColor=#A5A5A5;strokeColor=#A5A5A5;labelBackgroundColor=none;" parent="1" vertex="1">
            <mxGeometry x="1270" y="390" width="20" height="20" as="geometry" />
          </mxCell>
        </object>
        <object label="%id%" placeholders="1" type="junction" id="C69">
          <mxCell style="ellipse;whiteSpace=wrap;html=1;aspect=fixed;fontSize=8;fontColor=#A5A5A5;strokeColor=#A5A5A5;labelBackgroundColor=none;" parent="1" vertex="1">
            <mxGeometry x="990" y="350" width="20" height="20" as="geometry" />
          </mxCell>
        </object>
        <object label="%id%" placeholders="1" type="junction" id="C24">
          <mxCell style="ellipse;whiteSpace=wrap;html=1;aspect=fixed;fontSize=8;fontColor=#A5A5A5;strokeColor=#A5A5A5;labelBackgroundColor=none;" parent="1" vertex="1">
            <mxGeometry x="190" y="350" width="20" height="20" as="geometry" />
          </mxCell>
        </object>
        <object label="%id%" placeholders="1" type="junction" id="C25">
          <mxCell style="ellipse;whiteSpace=wrap;html=1;aspect=fixed;fontSize=8;fontColor=#A5A5A5;strokeColor=#A5A5A5;labelBackgroundColor=none;" parent="1" vertex="1">
            <mxGeometry x="70" y="310" width="20" height="20" as="geometry" />
          </mxCell>
        </object>
        <object label="%id%" placeholders="1" type="junction" id="C26">
          <mxCell style="ellipse;whiteSpace=wrap;html=1;aspect=fixed;fontSize=8;fontColor=#A5A5A5;strokeColor=#A5A5A5;labelBackgroundColor=none;" parent="1" vertex="1">
            <mxGeometry x="190" y="270" width="20" height="20" as="geometry" />
          </mxCell>
        </object>
        <object label="%id%" placeholders="1" type="junction" id="C55">
          <mxCell style="ellipse;whiteSpace=wrap;html=1;aspect=fixed;fontSize=8;fontColor=#A5A5A5;strokeColor=#A5A5A5;labelBackgroundColor=none;" parent="1" vertex="1">
            <mxGeometry x="30" y="310" width="20" height="20" as="geometry" />
          </mxCell>
        </object>
        <object label="%id%" placeholders="1" type="junction" id="C54">
          <mxCell style="ellipse;whiteSpace=wrap;html=1;aspect=fixed;fontSize=8;fontColor=#A5A5A5;strokeColor=#A5A5A5;labelBackgroundColor=none;" parent="1" vertex="1">
            <mxGeometry x="150" y="390" width="20" height="20" as="geometry" />
          </mxCell>
        </object>
        <object label="%id%" placeholders="1" type="junction" id="C49">
          <mxCell style="ellipse;whiteSpace=wrap;html=1;aspect=fixed;fontSize=8;fontColor=#A5A5A5;strokeColor=#A5A5A5;labelBackgroundColor=none;" parent="1" vertex="1">
            <mxGeometry x="990" y="470" width="20" height="20" as="geometry" />
          </mxCell>
        </object>
        <object label="%id%" placeholders="1" type="junction" id="C50">
          <mxCell style="ellipse;whiteSpace=wrap;html=1;aspect=fixed;fontSize=8;fontColor=#A5A5A5;strokeColor=#A5A5A5;labelBackgroundColor=none;" parent="1" vertex="1">
            <mxGeometry x="791" y="350" width="20" height="20" as="geometry" />
          </mxCell>
        </object>
        <object label="%id%" placeholders="1" type="junction" id="C29">
          <mxCell style="ellipse;whiteSpace=wrap;html=1;aspect=fixed;fontSize=8;fontColor=#A5A5A5;strokeColor=#A5A5A5;labelBackgroundColor=none;" parent="1" vertex="1">
            <mxGeometry x="670" y="230" width="20" height="20" as="geometry" />
          </mxCell>
        </object>
        <object label="%id%" placeholders="1" type="junction" id="C58">
          <mxCell style="ellipse;whiteSpace=wrap;html=1;aspect=fixed;fontSize=8;fontColor=#A5A5A5;strokeColor=#A5A5A5;labelBackgroundColor=none;" parent="1" vertex="1">
            <mxGeometry x="550" y="430" width="20" height="20" as="geometry" />
          </mxCell>
        </object>
        <object label="%id%" placeholders="1" type="junction" id="C27">
          <mxCell style="ellipse;whiteSpace=wrap;html=1;aspect=fixed;fontSize=8;fontColor=#A5A5A5;strokeColor=#A5A5A5;labelBackgroundColor=none;" parent="1" vertex="1">
            <mxGeometry x="350" y="270" width="20" height="20" as="geometry" />
          </mxCell>
        </object>
        <object label="%id%" placeholders="1" type="junction" id="C28">
          <mxCell style="ellipse;whiteSpace=wrap;html=1;aspect=fixed;fontSize=8;fontColor=#A5A5A5;strokeColor=#A5A5A5;labelBackgroundColor=none;" parent="1" vertex="1">
            <mxGeometry x="510" y="270" width="20" height="20" as="geometry" />
          </mxCell>
        </object>
        <object label="%id%" placeholders="1" type="junction" id="C59">
          <mxCell style="ellipse;whiteSpace=wrap;html=1;aspect=fixed;fontSize=8;fontColor=#A5A5A5;strokeColor=#A5A5A5;labelBackgroundColor=none;" parent="1" vertex="1">
            <mxGeometry x="670" y="270" width="20" height="20" as="geometry" />
          </mxCell>
        </object>
        <object label="%id%" placeholders="1" type="junction" id="C60">
          <mxCell style="ellipse;whiteSpace=wrap;html=1;aspect=fixed;fontSize=8;fontColor=#A5A5A5;strokeColor=#A5A5A5;labelBackgroundColor=none;" parent="1" vertex="1">
            <mxGeometry x="790" y="270" width="20" height="20" as="geometry" />
          </mxCell>
        </object>
        <object label="%id%" placeholders="1" type="junction" id="C56">
          <mxCell style="ellipse;whiteSpace=wrap;html=1;aspect=fixed;fontSize=8;fontColor=#A5A5A5;strokeColor=#A5A5A5;labelBackgroundColor=none;" parent="1" vertex="1">
            <mxGeometry x="150" y="230" width="20" height="20" as="geometry" />
          </mxCell>
        </object>
        <object label="%id%" placeholders="1" type="junction" id="C23">
          <mxCell style="ellipse;whiteSpace=wrap;html=1;aspect=fixed;fontSize=8;fontColor=#A5A5A5;strokeColor=#A5A5A5;labelBackgroundColor=none;" parent="1" vertex="1">
            <mxGeometry x="350" y="350" width="20" height="20" as="geometry" />
          </mxCell>
        </object>
        <object label="%id%" placeholders="1" type="junction" id="C22">
          <mxCell style="ellipse;whiteSpace=wrap;html=1;aspect=fixed;fontSize=8;fontColor=#A5A5A5;strokeColor=#A5A5A5;labelBackgroundColor=none;" parent="1" vertex="1">
            <mxGeometry x="510" y="350" width="20" height="20" as="geometry" />
          </mxCell>
        </object>
        <object label="%id%" placeholders="1" type="junction" id="C21">
          <mxCell style="ellipse;whiteSpace=wrap;html=1;aspect=fixed;fontSize=8;fontColor=#A5A5A5;strokeColor=#A5A5A5;labelBackgroundColor=none;" parent="1" vertex="1">
            <mxGeometry x="670" y="390" width="20" height="20" as="geometry" />
          </mxCell>
        </object>
        <object label="%id%" placeholders="1" type="junction" id="C52">
          <mxCell style="ellipse;whiteSpace=wrap;html=1;aspect=fixed;fontSize=8;fontColor=#A5A5A5;strokeColor=#A5A5A5;labelBackgroundColor=none;" parent="1" vertex="1">
            <mxGeometry x="550" y="470" width="20" height="20" as="geometry" />
          </mxCell>
        </object>
        <object label="%id%" placeholders="1" type="junction" id="C53">
          <mxCell style="ellipse;whiteSpace=wrap;html=1;aspect=fixed;fontSize=8;fontColor=#A5A5A5;strokeColor=#A5A5A5;labelBackgroundColor=none;" parent="1" vertex="1">
            <mxGeometry x="350" y="390" width="20" height="20" as="geometry" />
          </mxCell>
        </object>
        <object label="%id%" placeholders="1" type="junction" id="C20">
          <mxCell style="ellipse;whiteSpace=wrap;html=1;aspect=fixed;fontSize=8;fontColor=#A5A5A5;strokeColor=#A5A5A5;labelBackgroundColor=none;" parent="1" vertex="1">
            <mxGeometry x="791" y="390" width="20" height="20" as="geometry" />
          </mxCell>
        </object>
        <object label="%id%" placeholders="1" type="junction" id="C42">
          <mxCell style="ellipse;whiteSpace=wrap;html=1;aspect=fixed;fontSize=8;fontColor=#A5A5A5;strokeColor=#A5A5A5;labelBackgroundColor=none;" parent="1" vertex="1">
            <mxGeometry x="1430" y="190" width="20" height="20" as="geometry" />
          </mxCell>
        </object>
        <object label="%id%" placeholders="1" type="junction" id="C43">
          <mxCell style="ellipse;whiteSpace=wrap;html=1;aspect=fixed;fontSize=8;fontColor=#A5A5A5;strokeColor=#A5A5A5;labelBackgroundColor=none;" parent="1" vertex="1">
            <mxGeometry x="1590" y="230" width="20" height="20" as="geometry" />
          </mxCell>
        </object>
        <object label="%id%" placeholders="1" type="junction" id="C44">
          <mxCell style="ellipse;whiteSpace=wrap;html=1;aspect=fixed;fontSize=8;fontColor=#A5A5A5;strokeColor=#A5A5A5;labelBackgroundColor=none;" parent="1" vertex="1">
            <mxGeometry x="1750" y="230" width="20" height="20" as="geometry" />
          </mxCell>
        </object>
        <object label="%id%" placeholders="1" type="junction" id="C63">
          <mxCell style="ellipse;whiteSpace=wrap;html=1;aspect=fixed;fontSize=8;fontColor=#A5A5A5;strokeColor=#A5A5A5;labelBackgroundColor=none;" parent="1" vertex="1">
            <mxGeometry x="1590" y="270" width="20" height="20" as="geometry" />
          </mxCell>
        </object>
        <object label="%id%" placeholders="1" type="junction" id="C62">
          <mxCell style="ellipse;whiteSpace=wrap;html=1;aspect=fixed;fontSize=8;fontColor=#A5A5A5;strokeColor=#A5A5A5;labelBackgroundColor=none;" parent="1" vertex="1">
            <mxGeometry x="1430" y="270" width="20" height="20" as="geometry" />
          </mxCell>
        </object>
        <object label="%id%" placeholders="1" type="junction" id="C64">
          <mxCell style="ellipse;whiteSpace=wrap;html=1;aspect=fixed;fontSize=8;fontColor=#A5A5A5;strokeColor=#A5A5A5;labelBackgroundColor=none;" parent="1" vertex="1">
            <mxGeometry x="1750" y="270" width="20" height="20" as="geometry" />
          </mxCell>
        </object>
        <object label="%id%" placeholders="1" type="junction" id="C67">
          <mxCell style="ellipse;whiteSpace=wrap;html=1;aspect=fixed;fontSize=8;fontColor=#A5A5A5;strokeColor=#A5A5A5;labelBackgroundColor=none;" parent="1" vertex="1">
            <mxGeometry x="1470" y="350" width="20" height="20" as="geometry" />
          </mxCell>
        </object>
        <object label="%id%" placeholders="1" type="junction" id="C47">
          <mxCell style="ellipse;whiteSpace=wrap;html=1;aspect=fixed;fontSize=8;fontColor=#A5A5A5;strokeColor=#A5A5A5;labelBackgroundColor=none;" parent="1" vertex="1">
            <mxGeometry x="1470" y="430" width="20" height="20" as="geometry" />
          </mxCell>
        </object>
        <object label="%id%" placeholders="1" type="junction" id="C66">
          <mxCell style="ellipse;whiteSpace=wrap;html=1;aspect=fixed;fontSize=8;fontColor=#A5A5A5;strokeColor=#A5A5A5;labelBackgroundColor=none;" parent="1" vertex="1">
            <mxGeometry x="1670" y="350" width="20" height="20" as="geometry" />
          </mxCell>
        </object>
        <object label="%id%" placeholders="1" type="junction" id="C46">
          <mxCell style="ellipse;whiteSpace=wrap;html=1;aspect=fixed;fontSize=8;fontColor=#A5A5A5;strokeColor=#A5A5A5;labelBackgroundColor=none;" parent="1" vertex="1">
            <mxGeometry x="1670" y="390" width="20" height="20" as="geometry" />
          </mxCell>
        </object>
        <object label="%id%" placeholders="1" type="junction" id="C30">
          <mxCell style="ellipse;whiteSpace=wrap;html=1;aspect=fixed;fontSize=8;fontColor=#A5A5A5;strokeColor=#A5A5A5;labelBackgroundColor=none;" parent="1" vertex="1">
            <mxGeometry x="790" y="230" width="20" height="20" as="geometry" />
          </mxCell>
        </object>
        <object label="%id%" placeholders="1" type="junction" id="j120">
          <mxCell style="ellipse;whiteSpace=wrap;html=1;aspect=fixed;fontSize=8;fontColor=#BF9000;strokeColor=#BF9000;labelBackgroundColor=none;" parent="1" vertex="1">
            <mxGeometry x="870" y="390" width="20" height="20" as="geometry" />
          </mxCell>
        </object>
        <object label="%id%" placeholders="1" type="junction" id="j168">
          <mxCell style="ellipse;whiteSpace=wrap;html=1;aspect=fixed;fontSize=8;fontColor=#BF9000;strokeColor=#BF9000;labelBackgroundColor=none;" parent="1" vertex="1">
            <mxGeometry x="1130" y="350" width="20" height="20" as="geometry" />
          </mxCell>
        </object>
        <object label="%id%" placeholders="1" type="junction" id="j149">
          <mxCell style="ellipse;whiteSpace=wrap;html=1;aspect=fixed;fontSize=8;fontColor=#BF9000;strokeColor=#BF9000;labelBackgroundColor=none;" parent="1" vertex="1">
            <mxGeometry x="1110" y="390" width="20" height="20" as="geometry" />
          </mxCell>
        </object>
        <object label="%id%" placeholders="1" type="junction" id="j148">
          <mxCell style="ellipse;whiteSpace=wrap;html=1;aspect=fixed;fontSize=8;fontColor=#BF9000;strokeColor=#BF9000;labelBackgroundColor=none;" parent="1" vertex="1">
            <mxGeometry x="1150" y="390" width="20" height="20" as="geometry" />
          </mxCell>
        </object>
        <object label="%id%" placeholders="1" type="junction" id="C39">
          <mxCell style="ellipse;whiteSpace=wrap;html=1;aspect=fixed;fontSize=8;fontColor=#A5A5A5;strokeColor=#A5A5A5;labelBackgroundColor=none;" parent="1" vertex="1">
            <mxGeometry x="990" y="390" width="20" height="20" as="geometry" />
          </mxCell>
        </object>
        <object label="%id%" placeholders="1" type="junction" id="j142">
          <mxCell style="ellipse;whiteSpace=wrap;html=1;aspect=fixed;fontSize=8;fontColor=#BF9000;strokeColor=#BF9000;labelBackgroundColor=none;" parent="1" vertex="1">
            <mxGeometry x="1550" y="190" width="20" height="20" as="geometry" />
          </mxCell>
        </object>
        <object label="%id%" placeholders="1" type="junction" id="j147">
          <mxCell style="ellipse;whiteSpace=wrap;html=1;aspect=fixed;fontSize=8;fontColor=#BF9000;strokeColor=#BF9000;labelBackgroundColor=none;" parent="1" vertex="1">
            <mxGeometry x="1550" y="430" width="20" height="20" as="geometry" />
          </mxCell>
        </object>
        <object label="%id%" placeholders="1" type="junction" id="C38">
          <mxCell style="ellipse;whiteSpace=wrap;html=1;aspect=fixed;fontSize=8;fontColor=#A5A5A5;strokeColor=#A5A5A5;labelBackgroundColor=none;" parent="1" vertex="1">
            <mxGeometry x="1610" y="470" width="20" height="20" as="geometry" />
          </mxCell>
        </object>
        <object label="%id%" placeholders="1" type="junction" id="j146">
          <mxCell style="ellipse;whiteSpace=wrap;html=1;aspect=fixed;fontSize=8;fontColor=#BF9000;strokeColor=#BF9000;labelBackgroundColor=none;" parent="1" vertex="1">
            <mxGeometry x="1610" y="390" width="20" height="20" as="geometry" />
          </mxCell>
        </object>
        <object label="%id%&lt;br&gt;%blockId%" placeholders="1" type="section" blockId="B46" id="S146S">
          <mxCell style="endArrow=open;html=1;rounded=0;startArrow=oval;startFill=1;endFill=0;fontSize=8;fontColor=#4472C4;strokeColor=#4472C4;labelBackgroundColor=none;" parent="1" source="j146" target="j147" edge="1">
            <mxGeometry width="100" height="100" relative="1" as="geometry">
              <mxPoint x="1680.0333039594248" y="409.18454305122566" as="sourcePoint" />
              <mxPoint x="1579.9654575824488" y="400.8304547985374" as="targetPoint" />
              <Array as="points">
                <mxPoint x="1580" y="400" />
              </Array>
              <mxPoint as="offset" />
            </mxGeometry>
          </mxCell>
        </object>
        <object label="%id%" placeholders="1" type="junction" id="j166">
          <mxCell style="ellipse;whiteSpace=wrap;html=1;aspect=fixed;fontSize=8;fontColor=#BF9000;strokeColor=#BF9000;labelBackgroundColor=none;" parent="1" vertex="1">
            <mxGeometry x="1590" y="350" width="20" height="20" as="geometry" />
          </mxCell>
        </object>
        <object label="%id%&lt;br&gt;%blockId%" placeholders="1" type="section" blockId="B66" id="S166">
          <mxCell style="endArrow=open;html=1;rounded=0;startArrow=oval;startFill=1;endFill=0;fontSize=8;fontColor=#4472C4;strokeColor=#4472C4;labelBackgroundColor=none;" parent="1" source="j166" target="C67" edge="1">
            <mxGeometry width="100" height="100" relative="1" as="geometry">
              <mxPoint x="1680" y="370" as="sourcePoint" />
              <mxPoint x="1600" y="370" as="targetPoint" />
            </mxGeometry>
          </mxCell>
        </object>
        <object label="%id%&lt;br&gt;%blockId%" placeholders="1" type="section" blockId="B66" id="S146C">
          <mxCell style="endArrow=open;html=1;rounded=0;startArrow=oval;startFill=1;endFill=0;fontSize=8;fontColor=#4472C4;strokeColor=#4472C4;labelBackgroundColor=none;" parent="1" source="j146" target="j166" edge="1">
            <mxGeometry width="100" height="100" relative="1" as="geometry">
              <mxPoint x="1690" y="380" as="sourcePoint" />
              <mxPoint x="1610" y="380" as="targetPoint" />
            </mxGeometry>
          </mxCell>
        </object>
        <object label="%id%" placeholders="1" type="junction" id="C57">
          <mxCell style="ellipse;whiteSpace=wrap;html=1;aspect=fixed;fontSize=8;fontColor=#A5A5A5;strokeColor=#A5A5A5;labelBackgroundColor=none;" parent="1" vertex="1">
            <mxGeometry x="1650" y="470" width="20" height="20" as="geometry" />
          </mxCell>
        </object>
        <object label="%id%&lt;br&gt;%blockId%" placeholders="1" type="section" blockId="B100" id="S57">
          <mxCell style="endArrow=open;html=1;rounded=0;startArrow=oval;startFill=1;endFill=0;fontSize=8;fontColor=#4472C4;strokeColor=#4472C4;labelBackgroundColor=none;" parent="1" source="C57" target="C38" edge="1">
            <mxGeometry width="100" height="100" relative="1" as="geometry">
              <mxPoint x="1645.5278640450001" y="521.0557280900003" as="sourcePoint" />
              <mxPoint x="1580" y="450" as="targetPoint" />
              <Array as="points">
                <mxPoint x="1640" y="520" />
              </Array>
            </mxGeometry>
          </mxCell>
        </object>
      </root>
    </mxGraphModel>
  </diagram>
</mxfile>
